HIERARCHY
ROOT Hips
{
	OFFSET -0.001795 -0.223333 0.028219
	CHANNELS 6 Xposition Yposition Zposition Zrotation Yrotation Xrotation 
	JOINT LeftUpLeg
	{
		OFFSET 0.069520 -0.091406 -0.006815
		CHANNELS 3 Zrotation Yrotation Xrotation
		JOINT LeftLeg
		{
			OFFSET 0.034277 -0.375199 -0.004496
			CHANNELS 3 Zrotation Yrotation Xrotation
			JOINT LeftFoot
			{
				OFFSET -0.013596 -0.397961 -0.043693
				CHANNELS 3 Zrotation Yrotation Xrotation
				JOINT LeftToe
				{
					OFFSET 0.026358 -0.055791 0.119288
					CHANNELS 3 Zrotation Yrotation Xrotation
					End Site
					{
						OFFSET 0.000000 0.000000 0.000000
					}
				}
			}
		}
	}
	JOINT RightUpLeg
	{
		OFFSET -0.067670 -0.090522 -0.004320
		CHANNELS 3 Zrotation Yrotation Xrotation
		JOINT RightLeg
		{
			OFFSET -0.038290 -0.382569 -0.008850
			CHANNELS 3 Zrotation Yrotation Xrotation
			JOINT RightFoot
			{
				OFFSET 0.015774 -0.398415 -0.042312
				CHANNELS 3 Zrotation Yrotation Xrotation
				JOINT RightToe
				{
					OFFSET -0.025372 -0.048144 0.123348
					CHANNELS 3 Zrotation Yrotation Xrotation
					End Site
					{
						OFFSET 0.000000 0.000000 0.000000
					}
				}
			}
		}
	}
	JOINT Spine
	{
		OFFSET -0.002533 0.108963 -0.026696
		CHANNELS 3 Zrotation Yrotation Xrotation
		JOINT Spine1
		{
			OFFSET 0.005487 0.135180 0.001092
			CHANNELS 3 Zrotation Yrotation Xrotation
			JOINT Spine2
			{
				OFFSET 0.001457 0.052922 0.025425
				CHANNELS 3 Zrotation Yrotation Xrotation
				JOINT Neck
				{
					OFFSET -0.002778 0.213870 -0.042857
					CHANNELS 3 Zrotation Yrotation Xrotation
					JOINT Head
					{
						OFFSET 0.005152 0.064970 0.051349
						CHANNELS 3 Zrotation Yrotation Xrotation
						End Site
						{
							OFFSET 0.000000 0.000000 0.000000
						}
					}
				}
				JOINT LeftShoulder
				{
					OFFSET 0.078845 0.121749 -0.034090
					CHANNELS 3 Zrotation Yrotation Xrotation
					JOINT LeftArm
					{
						OFFSET 0.090977 0.030469 -0.008868
						CHANNELS 3 Zrotation Yrotation Xrotation
						JOINT LeftForeArm
						{
							OFFSET 0.259612 -0.012772 -0.027456
							CHANNELS 3 Zrotation Yrotation Xrotation
							JOINT LeftHand
							{
								OFFSET 0.249234 0.008986 -0.001171
								CHANNELS 3 Zrotation Yrotation Xrotation
								End Site
								{
									OFFSET 0.000000 0.000000 0.000000
								}
							}
						}
					}
				}
				JOINT RightShoulder
				{
					OFFSET -0.081759 0.118833 -0.038615
					CHANNELS 3 Zrotation Yrotation Xrotation
					JOINT RightArm
					{
						OFFSET -0.096012 0.032551 -0.009143
						CHANNELS 3 Zrotation Yrotation Xrotation
						JOINT RightForeArm
						{
							OFFSET -0.253742 -0.013329 -0.021401
							CHANNELS 3 Zrotation Yrotation Xrotation
							JOINT RightHand
							{
								OFFSET -0.255298 0.007772 -0.005559
								CHANNELS 3 Zrotation Yrotation Xrotation
								End Site
								{
									OFFSET 0.000000 0.000000 0.000000
								}
							}
						}
					}
				}
			}
		}
	}
}
MOTION
Frames: 15
Frame Time: 0.050000
0.182618 0.945764 0.416017 -2.333699 36.857792 4.299493 2.639307 -0.769426 -8.440065 0.482299 -0.186069 2.549109 -0.848944 1.828923 4.337632 0.000000 0.000000 0.000000 -2.645374 0.334366 -10.041110 1.048316 -0.365744 5.525567 -2.292448 -4.763826 8.379660 0.000000 0.000000 0.000000 -0.604373 0.024094 -1.693135 -0.488954 0.024433 0.107087 4.812819 -0.447301 6.919509 3.455667 1.494673 -19.300787 0.000000 0.000000 0.000000 -23.953737 -3.686856 -6.358639 -54.162108 6.177956 -8.156650 -1.581169 -30.452935 0.189128 0.000000 0.000000 0.000000 25.310792 4.840109 7.326251 51.288572 13.187429 -1.538761 -33.837644 68.422757 -13.664798 0.000000 0.000000 0.000000 
0.183213 0.945752 0.417464 -2.040975 37.077196 4.217184 2.355934 -0.716741 -7.970152 0.577130 -0.174804 2.252920 -0.841438 2.063793 4.602394 0.000000 0.000000 0.000000 -2.864420 0.289225 -9.500065 1.170296 -0.390940 5.352687 -2.285184 -4.758486 8.274219 0.000000 0.000000 0.000000 -0.664474 0.024036 -1.770867 -0.487831 0.009218 0.196774 4.723087 -0.597174 6.999315 2.742320 1.847699 -18.934571 0.000000 0.000000 0.000000 -24.286474 -3.668864 -6.468855 -53.962941 6.427701 -8.192090 -0.781000 -30.100813 -0.012847 0.000000 0.000000 0.000000 25.434279 4.149686 6.885491 51.963681 11.140105 -2.378980 -33.165341 66.729737 -12.766232 0.000000 0.000000 0.000000 
0.183700 0.945612 0.418320 -1.783438 37.273049 4.144194 2.279545 -0.675267 -7.551154 0.442753 -0.149475 1.915954 -0.739020 2.301847 4.679480 0.000000 0.000000 0.000000 -3.035151 0.253523 -9.052174 1.352563 -0.425699 5.094585 -2.502398 -5.215497 8.317365 0.000000 0.000000 0.000000 -0.770153 0.024422 -1.941961 -0.648862 0.003664 0.679948 4.736310 -0.740128 6.784661 2.428274 1.953641 -18.566429 0.000000 0.000000 0.000000 -23.817959 -3.267668 -6.478639 -54.309162 6.551187 -8.390247 -0.236994 -30.134607 -0.162974 0.000000 0.000000 0.000000 24.605859 3.695958 6.344526 52.720345 10.019188 -2.693161 -33.439398 63.471903 -12.106827 0.000000 0.000000 0.000000 
0.183884 0.945859 0.418742 -1.516846 37.072127 3.983537 2.172006 -0.626259 -7.052131 0.324966 -0.128424 1.632394 -0.675980 2.649707 4.989590 0.000000 0.000000 0.000000 -3.323372 0.204147 -8.433469 1.522432 -0.447621 4.755821 -2.542398 -5.341363 8.308867 0.000000 0.000000 0.000000 -0.721085 0.025403 -1.989755 -0.896820 0.118030 0.701672 4.719487 -0.618382 6.934001 1.989297 2.189230 -18.418505 0.000000 0.000000 0.000000 -23.842531 -3.028908 -6.610746 -54.500651 6.741984 -8.542940 -0.019925 -30.388722 -0.230260 0.000000 0.000000 0.000000 24.115537 3.657448 6.230137 53.108773 10.647048 -2.367187 -34.104024 59.854207 -11.536359 0.000000 0.000000 0.000000 
0.183835 0.946106 0.418705 -1.385625 36.785489 4.003517 2.061910 -0.601291 -6.815797 0.315756 -0.107474 1.215529 -0.755121 2.682758 5.210030 0.000000 0.000000 0.000000 -3.388398 0.191613 -7.935021 1.626964 -0.441120 4.102799 -2.557744 -5.409146 8.304584 0.000000 0.000000 0.000000 -0.613856 0.028381 -2.316033 -1.164305 0.245563 0.684601 4.638051 -0.363070 7.199312 1.877361 2.262155 -18.342329 0.000000 0.000000 0.000000 -23.482210 -2.924724 -6.591258 -54.705942 6.681388 -8.618385 0.100531 -30.602390 -0.285815 0.000000 0.000000 0.000000 23.755142 4.205510 6.573157 52.987667 12.544063 -1.542848 -34.857014 56.138970 -10.980034 0.000000 0.000000 0.000000 
0.183713 0.946257 0.418487 -1.267517 36.466872 3.963803 1.927372 -0.584489 -6.682386 0.390423 -0.110630 1.230099 -0.798886 2.767645 5.422962 0.000000 0.000000 0.000000 -3.394099 0.193175 -7.769047 1.570268 -0.423559 4.101255 -2.497518 -5.349548 7.997402 0.000000 0.000000 0.000000 -0.447919 0.031532 -2.447562 -1.380988 0.320624 0.867402 4.441148 -0.110743 7.099157 1.974283 2.168803 -18.036765 0.000000 0.000000 0.000000 -23.477178 -2.965299 -6.581524 -54.528375 6.871846 -8.649003 0.237428 -31.209304 -0.349518 0.000000 0.000000 0.000000 23.827017 4.709778 6.917466 51.728723 14.381391 -0.835930 -34.856010 53.689949 -10.482104 0.000000 0.000000 0.000000 
0.183598 0.946419 0.418306 -1.153946 36.115570 3.828413 1.728015 -0.558690 -6.471825 0.454579 -0.107841 1.127010 -0.714267 3.113580 5.698673 0.000000 0.000000 0.000000 -3.572959 0.166920 -7.482052 1.549327 -0.408970 3.972197 -2.358883 -5.088643 8.003271 0.000000 0.000000 0.000000 -0.276222 0.034251 -2.466583 -1.575150 0.437180 0.721582 4.286015 0.242809 7.248472 1.865804 2.243148 -17.921161 0.000000 0.000000 0.000000 -23.636757 -3.037126 -6.672812 -54.223875 6.906044 -8.557469 -0.007498 -31.729781 -0.315681 0.000000 0.000000 0.000000 23.767520 5.389542 7.420833 50.133176 16.626825 -0.051042 -33.781305 51.957735 -9.663803 0.000000 0.000000 0.000000 
0.183515 0.946323 0.418346 -0.990364 35.808679 3.680492 1.477166 -0.523353 -6.167230 0.659797 -0.113531 1.056825 -0.858154 2.951629 5.812126 0.000000 0.000000 0.000000 -3.579938 0.163995 -7.287809 1.341528 -0.365005 4.173481 -2.228108 -4.887995 7.534740 0.000000 0.000000 0.000000 -0.161657 0.036559 -2.548458 -1.797682 0.532440 0.794799 4.108700 0.503328 7.241730 2.016970 2.044170 -17.068889 0.000000 0.000000 0.000000 -23.557981 -2.964240 -6.714319 -53.924311 7.177470 -8.609193 -0.525545 -32.564047 -0.200983 0.000000 0.000000 0.000000 23.746691 6.145535 7.923580 48.382529 18.663716 0.608265 -31.776797 51.196296 -8.772462 0.000000 0.000000 0.000000 
0.183256 0.946161 0.418542 -0.883927 35.746384 3.607156 1.354116 -0.491553 -5.848163 0.724958 -0.101506 0.736361 -0.892985 3.059367 6.035672 0.000000 0.000000 0.000000 -3.583657 0.158292 -7.099859 1.052082 -0.304816 4.342886 -2.095250 -4.631574 7.298225 0.000000 0.000000 0.000000 -0.017831 0.039196 -2.701979 -1.877673 0.549837 0.936410 4.002964 0.761902 7.129017 2.098773 1.954978 -16.658477 0.000000 0.000000 0.000000 -23.895107 -3.244780 -6.743488 -53.551924 7.423283 -8.556461 -1.249806 -33.445968 -0.020776 0.000000 0.000000 0.000000 23.923509 6.833224 8.463665 46.775800 20.451905 1.114689 -29.657150 51.016127 -7.949431 0.000000 0.000000 0.000000 
0.182744 0.945976 0.418805 -0.883618 35.836771 3.597172 1.319363 -0.482936 -5.761542 0.878186 -0.095126 0.435537 -1.176247 2.853434 6.377771 0.000000 0.000000 0.000000 -3.455317 0.171783 -7.088920 0.824064 -0.259754 4.476662 -2.086352 -4.634515 6.990803 0.000000 0.000000 0.000000 0.157547 0.041745 -2.929125 -1.977496 0.580505 1.015022 3.696106 1.148241 7.071679 2.565576 1.707604 -16.536342 0.000000 0.000000 0.000000 -23.722491 -3.638212 -6.643583 -53.404674 7.442775 -8.485359 -1.891407 -34.154511 0.106853 0.000000 0.000000 0.000000 24.490179 7.419955 9.152544 45.160055 22.038144 1.426773 -27.669530 50.381582 -7.081675 0.000000 0.000000 0.000000 
0.181959 0.945895 0.419005 -0.806349 35.988087 3.686878 1.314626 -0.478466 -5.712826 0.872310 -0.083649 0.171112 -1.234048 2.867403 6.515450 0.000000 0.000000 0.000000 -3.304924 0.191696 -7.159416 0.568367 -0.208908 4.617791 -2.022496 -4.506901 6.730491 0.000000 0.000000 0.000000 0.242071 0.043073 -3.102476 -2.056507 0.584737 1.205132 3.618738 1.453496 6.901394 2.705659 1.609169 -16.227954 0.000000 0.000000 0.000000 -23.717595 -3.982927 -6.583200 -53.188315 7.564631 -8.428349 -2.612916 -34.992917 0.277707 0.000000 0.000000 0.000000 24.635260 7.683193 9.473624 44.550754 23.312376 1.805895 -26.283113 50.252589 -6.495427 0.000000 0.000000 0.000000 
0.181036 0.945796 0.419177 -0.721796 36.188784 3.933533 1.403761 -0.491242 -5.821679 0.808798 -0.073650 -0.021591 -1.489589 2.624503 6.739028 0.000000 0.000000 0.000000 -3.087755 0.221082 -7.243283 0.426402 -0.179624 4.592336 -2.016042 -4.516532 6.321094 0.000000 0.000000 0.000000 0.328251 0.044058 -3.364254 -2.027260 0.563628 1.219745 3.362055 1.642544 6.955540 3.078312 1.455742 -16.417297 0.000000 0.000000 0.000000 -23.487949 -4.252906 -6.499596 -53.246107 7.376779 -8.342167 -3.703747 -35.815719 0.564293 0.000000 0.000000 0.000000 25.147588 8.085378 10.034867 43.417281 24.845810 2.108919 -25.421181 49.883986 -6.114824 0.000000 0.000000 0.000000 
0.180030 0.946064 0.419437 -0.647014 36.228275 4.180771 1.501393 -0.507283 -5.964118 0.665557 -0.057539 -0.308941 -1.643496 2.495207 6.899686 0.000000 0.000000 0.000000 -3.016301 0.237538 -7.461504 0.439858 -0.178302 4.421696 -1.887032 -4.228243 6.220217 0.000000 0.000000 0.000000 0.330990 0.043528 -3.600888 -2.152081 0.609931 1.254506 3.327895 2.027749 6.972636 3.386990 1.341188 -16.572511 0.000000 0.000000 0.000000 -23.263927 -4.718742 -6.325675 -53.283072 7.417675 -8.343480 -4.453088 -36.845209 0.749112 0.000000 0.000000 0.000000 25.087554 8.449885 10.410731 42.777341 26.282052 2.516064 -25.838632 49.297208 -6.200684 0.000000 0.000000 0.000000 
0.179059 0.946114 0.419970 -0.595484 36.221313 4.390033 1.663953 -0.502547 -5.825956 0.586953 -0.046173 -0.559609 -1.845499 2.168644 6.917042 0.000000 0.000000 0.000000 -2.925710 0.254766 -7.579662 0.387738 -0.162118 4.252135 -1.769262 -3.985904 5.961722 0.000000 0.000000 0.000000 0.407176 0.044137 -3.735678 -2.237328 0.672779 1.064016 3.222661 2.266151 7.206688 3.802637 1.154255 -16.721270 0.000000 0.000000 0.000000 -22.829397 -4.844894 -6.220724 -53.505205 7.406055 -8.436454 -5.418723 -37.767513 1.021125 0.000000 0.000000 0.000000 24.792678 9.103702 10.884037 41.805054 28.050356 2.997248 -27.293391 48.974680 -6.766977 0.000000 0.000000 0.000000 
0.178179 0.946476 0.420768 -0.611754 36.076214 4.455538 1.767050 -0.497388 -5.706629 0.621595 -0.037545 -0.845435 -2.130668 1.788524 7.047068 0.000000 0.000000 0.000000 -2.651548 0.289445 -7.458228 0.293598 -0.131038 3.875667 -1.714892 -3.865156 5.989293 0.000000 0.000000 0.000000 0.510409 0.045385 -3.922047 -2.318648 0.702279 1.108348 3.118280 2.636884 7.103441 4.086479 1.026795 -16.794992 0.000000 0.000000 0.000000 -22.515225 -5.147074 -6.055429 -53.713201 7.767948 -8.652264 -6.082602 -38.820461 1.206324 0.000000 0.000000 0.000000 24.523755 9.517556 11.175616 40.622017 30.199930 3.582879 -28.264621 48.238629 -7.077363 0.000000 0.000000 0.000000 
